# xmcd
#
# Track frame offsets: 
#        150
#        11793
#        23528
#        37800
#        50238
#        62068
#        71743
#        81828
#        91728
#        102955
#        120068
#        130513
#        144373
#        160333
#        177425
#        187918
#
# Disc length: 2650 seconds
#
# Revision: 4
# Processed by: cddbd v1.5.2PL0 Copyright (c) Steve Scherf et al.
# Submitted via: ExactAudioCopyFreeDBPlugin 1.0
#
DISCID=c50a5810
DTITLE=Various Artist - Die grossen Deutschen Countrystars
DYEAR=1993
DGENRE=Country
TTITLE0=Freddy Quinn - Die Freiheit der Berge
TTITLE1=Jonny Hill - Mehr hinterm Lenkrad als Zuhaus
TTITLE2=Tom Astor - Ich hör' gerne Cajun-Music
TTITLE3=Tom Astor - Von New York City nach L.A.
TTITLE4=Freddy Quinn - Ich möcht' in Tennessee leben
TTITLE5=Freddy Quinn - Oh Susanna
TTITLE6=Peter Held - Gehn wir nochmal den Weg nach Westen
TTITLE7=Peter Held - Oh wie schade, Clementine
TTITLE8=Jonny Hill - Tennessee Waltz
TTITLE9=Jonny Hill - Geisterreiter
TTITLE10=Peter Held - Die schönste Frau von Texas (Yellow rose of Texa
TTITLE10=s)
TTITLE11=Tom Astor - Fuzzy, das war der Größte
TTITLE12=Jonny Hill - Und wieder zeigt dir einer einen Vogel
TTITLE13=Freddy Quinn - Gib mir ein Zuhaus (Home on the range)
TTITLE14=Tom Astor - Highway Helden
TTITLE15=Peter Held - Die Wahrheit über Tom Dooley
EXTD=
EXTT0=
EXTT1=
EXTT2=
EXTT3=
EXTT4=
EXTT5=
EXTT6=
EXTT7=
EXTT8=
EXTT9=
EXTT10=
EXTT11=
EXTT12=
EXTT13=
EXTT14=
EXTT15=
PLAYORDER=
